# xmcd
#
# Track frame offsets: 
#        150
#        18985
#        46957
#
# Disc length: 926 seconds
#
# Revision: 1
# Processed by: cddbd v1.5.2PL0 Copyright (c) Steve Scherf et al.
# Submitted via: ExactAudioCopy v1.3
#
DISCID=1a039c03
DTITLE=Joanne Farrell - All I Wanna Do
DYEAR=1995
DGENRE=Euro-House
TTITLE0=All I Wanna Do   Radio Edit
TTITLE1=All I Wanna Do   Club Edit
TTITLE2=All I Wanna Do   Dubstrumental
EXTD=
EXTT0=
EXTT1=
EXTT2=
PLAYORDER=
